<?xml version="1.0" encoding="UTF-8" standalone="no"?>
<!-- Created with Inkscape (http://www.inkscape.org/) -->

<svg
   xmlns:dc="http://purl.org/dc/elements/1.1/"
   xmlns:cc="http://creativecommons.org/ns#"
   xmlns:rdf="http://www.w3.org/1999/02/22-rdf-syntax-ns#"
   xmlns:svg="http://www.w3.org/2000/svg"
   xmlns="http://www.w3.org/2000/svg"
   version="1.1"
   width="253.47682"
   height="145.8688"
   viewBox="0 0 253.47682 145.8688"
   id="Layer_1"
   xml:space="preserve"><metadata
   id="metadata76"><rdf:RDF><cc:Work
       rdf:about=""><dc:format>image/svg+xml</dc:format><dc:type
         rdf:resource="http://purl.org/dc/dcmitype/StillImage" /><dc:title></dc:title></cc:Work></rdf:RDF></metadata><defs
   id="defs74" />
<g
   transform="matrix(0,1,-1,0,383.10919,-183.16656)"
   id="Grid_1_">
	
<path
   d="m 201.91601,379.30561 c -11.15851,-5.06537 -17.92691,-15.33379 -17.92691,-27.19714 0,-11.01807 3.48785,-16.51299 28.22979,-44.47457 11.08618,-12.52882 25.88941,-29.28623 32.89608,-37.2387 l 12.73939,-14.45904 -35.71641,-40.18439 c -24.45196,-27.51082 -36.39312,-42.63528 -37.8621,-47.95547 -6.79153,-24.5969 18.87379,-46.02956 42.32976,-35.34884 9.49323,4.32276 97.99629,105.04924 100.94302,114.88457 4.58237,15.29458 1.15147,20.78156 -48.03718,76.82492 -53.83368,61.3357 -57.78291,64.1425 -77.59544,55.14866 z"
   id="path3055"
   style="fill:#a0a0a0;stroke:none" /></g>

<path
   d="M 110.84669,137.3612 C 93.571466,125.90402 17.299019,58.957358 9.4947094,48.401465 0.79117544,36.629305 -0.12276734,31.571244 4.5463906,21.015837 9.4911925,9.8372924 19.717196,2.7258289 30.863553,2.7141061 41.612487,2.702803 52.082291,9.9953885 92.440337,45.604513 l 34.575763,30.507244 9.08652,-7.957117 c 79.50635,-69.6241956 82.50771,-71.5915433 97.7926,-64.1014394 12.2734,6.0143794 18.78476,16.8357534 17.46508,29.0256774 -0.98473,9.096183 -2.63532,11.279381 -24.17644,31.977537 -21.95889,21.099602 -67.00178,60.231865 -83.82916,72.828915 -10.4309,7.80862 -20.18086,7.65142 -32.50801,-0.52413 z"
   id="path3057"
   style="fill:#ffffff" /></svg>