<?xml version="1.0" encoding="UTF-8" standalone="no"?>
<!-- Created with Inkscape (http://www.inkscape.org/) -->

<svg
   xmlns:dc="http://purl.org/dc/elements/1.1/"
   xmlns:cc="http://creativecommons.org/ns#"
   xmlns:rdf="http://www.w3.org/1999/02/22-rdf-syntax-ns#"
   xmlns:svg="http://www.w3.org/2000/svg"
   xmlns="http://www.w3.org/2000/svg"
   version="1.1"
   width="253.47682"
   height="145.8688"
   viewBox="0 0 253.47682 145.8688"
   id="Layer_1"
   xml:space="preserve"><metadata
   id="metadata76"><rdf:RDF><cc:Work
       rdf:about=""><dc:format>image/svg+xml</dc:format><dc:type
         rdf:resource="http://purl.org/dc/dcmitype/StillImage" /><dc:title></dc:title></cc:Work></rdf:RDF></metadata><defs
   id="defs74" />
<g
   transform="matrix(0,-1,1,0,-129.63237,329.03535)"
   id="Grid_1_">
	
<path
   d="m 201.91601,379.30561 c -11.15851,-5.06537 -17.92691,-15.33379 -17.92691,-27.19714 0,-11.01807 3.48785,-16.51299 28.22979,-44.47457 11.08618,-12.52882 25.88941,-29.28623 32.89608,-37.2387 l 12.73939,-14.45904 -35.71641,-40.18439 c -24.45196,-27.51082 -36.39312,-42.63528 -37.8621,-47.95547 -6.79153,-24.5969 18.87379,-46.02956 42.32976,-35.34884 9.49323,4.32276 97.99629,105.04924 100.94302,114.88457 4.58237,15.29458 1.15147,20.78156 -48.03718,76.82492 -53.83368,61.3357 -57.78291,64.1425 -77.59544,55.14866 z"
   id="path3055"
   style="fill:#a0a0a0;stroke:none" /></g>

<path
   d="m 142.63013,8.5075935 c 17.27522,11.4571795 93.54767,78.4038415 101.35198,88.9597345 8.70353,11.772162 9.61748,16.830222 4.94832,27.385632 -4.9448,11.17854 -15.17081,18.29 -26.31716,18.30173 -10.74894,0.0113 -21.21874,-7.28129 -61.57679,-42.89041 L 126.46072,69.757036 117.3742,77.714153 C 37.867848,147.33835 34.866488,149.3057 19.581598,141.81559 7.3081985,135.80121 0.79683846,124.97984 2.1165185,112.78992 c 0.98473,-9.09619 2.63532,-11.27939 24.1764395,-31.977542 21.95889,-21.099602 67.00178,-60.231865 83.829162,-72.8289145 10.4309,-7.80862002 20.18086,-7.65142002 32.50801,0.52413 z"
   id="path3057"
   style="fill:#ffffff" /></svg>